<svg xmlns="http://www.w3.org/2000/svg" viewBox="0 0 442.15 232.03">
  <defs>
    <style>
      .cls-1 {
        fill: none;
        stroke: #000;
        stroke-linecap: round;
        stroke-miterlimit: 10;
        stroke-width: 20.13px;
      }
    </style>
  </defs>
  <title>bigCar</title>
  <g id="Layer_2" data-name="Layer 2">
    <g id="largeCar">
      <g>
        <circle class="cls-1" cx="82.46" cy="182.14" r="39.83"/>
        <circle class="cls-1" cx="359.41" cy="182.14" r="39.83"/>
        <path d="M434.61,159.08s0-46.13-30.19-62.9c-29.49-16.38-81.35-11.74-81.35-11.74s-10.62-60.95-27.32-71.75C276.42.18,199.46-1.07,168.56.58c-36.78,2-116.48,13-132.87,16.18a2.57,2.57,0,0,0-1.88,3.52c.18.44.38.87.57,1.26C40,32.84,29.81,43.93,26.84,50.9c-3.12,7.29-10,19.18-12.58,32.7-6.37,33.32-6.71,75.48-6.71,75.48C3.38,159.08,0,160.75,0,170.4s3.38,11.32,7.55,11.32H40l3.57.42a39.84,39.84,0,1,1,79.67,0L239,181.72h81.56a39.83,39.83,0,1,1,79.66,0h34.39c4.16,0,7.54-1.68,7.54-11.32S438.77,159.08,434.61,159.08ZM114.12,88H28.58s3.6-30.64,27.68-46.12C79.74,26.73,115,25.89,115,25.89ZM136,88V25.89L207,25l.25,62.11Zm99.84.21V26.1s34.39-2.65,54.05,11.11C306,48.48,307.1,87.32,307.1,87.32Z"/>
      </g>
    </g>
  </g>
</svg>
