<svg xmlns="http://www.w3.org/2000/svg" viewBox="0 0 297.5 165.66"><defs><style>.cls-1{fill:#e2f4f6;}</style></defs><title>motorbike</title><g id="Layer_2" data-name="Layer 2"><g id="Motorbike"><path class="cls-1" d="M251.38,165.66a46.13,46.13,0,1,1,46.12-46.12A46.18,46.18,0,0,1,251.38,165.66Zm0-77.64a31.52,31.52,0,1,0,31.51,31.52A31.56,31.56,0,0,0,251.38,88Z"/><path class="cls-1" d="M46.12,162.59a46.13,46.13,0,1,1,46.13-46.13A46.18,46.18,0,0,1,46.12,162.59Zm0-77.64a31.52,31.52,0,1,0,31.52,31.51A31.54,31.54,0,0,0,46.12,85Z"/><path class="cls-1" d="M251.76,125.31a5.78,5.78,0,0,1-5.57-4.28c-.07-.25-6.8-25.39-14.93-51.4C216.54,22.57,210.4,14.68,209,13.42c-1.59-.59-6.74.13-9.54.51a45.22,45.22,0,0,1-8,.67c-5.49-.31-17.92-2.9-19.32-3.19A5.77,5.77,0,0,1,174.54.12c3.56.75,13.67,2.75,17.58,3a39.07,39.07,0,0,0,5.8-.57c6.41-.88,13.66-1.89,18.27,1.86,4.21,3.41,11,13.53,26.08,61.85,8.21,26.23,15,51.58,15.06,51.83a5.77,5.77,0,0,1-4.08,7.06A5.93,5.93,0,0,1,251.76,125.31Z"/><path class="cls-1" d="M228.63,39.34s27.58,2.72,33.05-2.16c3.65-3.26,6.53-9.74,3.83-18.14-2.92-9.11-9.66-15.36-14.74-15.53C243.11,3.25,225.29,19,225.29,19"/><path class="cls-1" d="M69.57,60.35c5.91,1.72,10,3.61,10,6.91,0,1.54,0,3.85-1.53,4.62C69.56,76.11,52.33,91.82,45,104.93c-3.38,6-8.46,12.3-3.07,15.38a9.53,9.53,0,0,0,4.61.77c10.79,0,21.34-7.13,51.5-6.92,28.32.19,17.68,8.45,65.35,6.92,3.89-.13,16.16-1.77,21.9-6,9.41-6.86,7.24-15.55,14.23-25.56,11-15.72,26.59-10.24,33.63-22.3,4-6.91-.75-37.27-13.07-39.2-34.4-5.38-50.45,23.41-64.77,25.75-1.76.29,4.23-4.23,4.23-4.23.77-4.61-21.52,1.54-23.83,1.54-10.45,0-19.22-3.07-30.75-4.61-10.7-1.43-18-3-22.29-3.84-22.39-4.26-26.14-5.39-32.29-6.92C44.79,34.36,31.9,29.6,28.83,29.6s-6.77,1.22-6.15,6.15c.77,6.15,18,14.54,20,15.37C49.55,54.07,55.47,56.23,69.57,60.35Z"/></g></g></svg>