<svg xmlns="http://www.w3.org/2000/svg" viewBox="0 0 387 215.5">
  <defs>
    <style>
      .cls-1, .cls-2 {
        fill: none;
        stroke: #000;
        stroke-miterlimit: 10;
      }

      .cls-1 {
        stroke-width: 19px;
      }

      .cls-2 {
        stroke-linecap: round;
        stroke-width: 15px;
      }
    </style>
  </defs>
  <title>motorbike</title>
  <g id="Layer_2" data-name="Layer 2">
    <g id="Motorbike">
      <g>
        <circle class="cls-1" cx="327" cy="155.5" r="50.5"/>
        <circle class="cls-1" cx="60" cy="151.5" r="50.5"/>
        <path class="cls-2" d="M327.5,155.5s-35-131-51-144c-5.24-4.26-20.26.37-27,0s-24-4-24-4"/>
        <path d="M297.41,51.17s35.88,3.54,43-2.8c4.76-4.25,8.5-12.68,5-23.6-3.81-11.85-12.57-20-19.18-20.2-10-.34-33.14,20.19-33.14,20.19"/>
        <path d="M90.5,78.5c7.68,2.24,13,4.71,13,9,0,2,0,5-2,6-11,5.5-33.43,26-43,43-4.4,7.84-11,16-4,20,1.72,1,4,1,6,1,14,0,27.77-9.27,67-9,36.84.25,23,11,85,9,5.06-.16,21-2.3,28.5-7.75,12.24-8.93,9.41-20.22,18.5-33.25,14.27-20.44,34.6-13.31,43.75-29,5.25-9-1-48.49-17-51C241.5,29.5,220.62,67,202,70c-2.29.38,5.5-5.5,5.5-5.5,1-6-28,2-31,2-13.6,0-25-4-40-6-13.93-1.86-23.43-3.94-29-5-29.12-5.54-34-7-42-9-7.24-1.81-24-8-28-8s-8.8,1.59-8,8c1,8,23.47,18.91,26,20C64.46,70.34,72.16,73.15,90.5,78.5Z"/>
      </g>
    </g>
  </g>
</svg>
