<svg xmlns="http://www.w3.org/2000/svg" viewBox="0 0 555.15 297.3"><defs><style>.cls-1{fill:#a9bbb8;}</style></defs><title>motorhome</title><g id="Layer_2" data-name="Layer 2"><g id="campervan"><path class="cls-1" d="M82.46,297.3a49.9,49.9,0,1,1,49.9-49.9A50,50,0,0,1,82.46,297.3Zm0-79.67a29.77,29.77,0,1,0,29.77,29.77A29.8,29.8,0,0,0,82.46,217.63Z"/><path class="cls-1" d="M470.41,296.3a49.9,49.9,0,1,1,49.89-49.9A50,50,0,0,1,470.41,296.3Zm0-79.67a29.77,29.77,0,1,0,29.77,29.77A29.8,29.8,0,0,0,470.41,216.63Z"/><path class="cls-1" d="M547.6,223.62s0-46.12-30.19-62.9C487.93,144.34,456,132.26,456,132.26s-32.83-41.32-47.25-55a138.18,138.18,0,0,0-42.75-27c-1.75-.65-39-49.08-86-50-205-4-271,39-271,39L7.55,224.34C3.38,224.34,0,226,0,235.66S3.38,247,7.55,247H40l3.57.42a39.83,39.83,0,0,1,79.66,0L295,247l57-.72h81.55a39.84,39.84,0,0,1,79.67,0H547.6c4.17,0,7.55-1.67,7.55-11.32S551.77,223.62,547.6,223.62ZM158,131.26H49.12A9.12,9.12,0,0,1,40,122.14V75.51a8.25,8.25,0,0,1,8.25-8.25H158Zm142.62,0H190v-64H302a6,6,0,0,1,6,6v50.63A7.37,7.37,0,0,1,300.62,131.26Zm77.26,2c-5.19,0-8.88-1-11.88-8,0,0-14.28-55.61-14-57,1-5,38.72,11.91,53,27,14.64,15.48,25,38,25,38Z"/></g></g></svg>