<svg xmlns="http://www.w3.org/2000/svg" viewBox="0 0 366.06 234.01"><defs><style>.cls-1{fill:#e2f4f6;}</style></defs><title>smallCar</title><g id="Layer_2" data-name="Layer 2"><g id="smallCar"><path class="cls-1" d="M358.42,161.49s.08-46.82-30.54-63.9C298,80.91,245.32,85.53,245.32,85.53L229.26,23.35S224.18,3.76,171.41.27C134.1-2.2,53.15,13.21,36.5,16.46A2.61,2.61,0,0,0,34.58,20c.19.44.39.89.59,1.28C40.88,32.79,30.49,44,27.45,51.1c-3.17,7.39-10.18,19.45-12.82,33.17-6.53,33.81-7,76.61-7,76.61-4.23,0-7.66,1.69-7.68,11.48s3.41,11.5,7.64,11.5l33,.06,3.62.43a40.44,40.44,0,0,1,80.87.14l117.48-.22a40.44,40.44,0,1,1,80.87.14h1.07l33.84.06c4.23,0,7.66-1.69,7.68-11.48S362.65,161.49,358.42,161.49ZM122.74,85.31l-86.83-.15s3.7-31.1,28.17-46.77C87.94,23.11,123.7,22.32,123.7,22.32Zm28.09,0,.11-63s49.73-2.12,61.28,9.47c6.8,6.82,11,52.8,11,52.8Z"/><path class="cls-1" d="M83.62,234a49.9,49.9,0,1,1,49.9-49.9A50,50,0,0,1,83.62,234Zm0-79.67a29.77,29.77,0,1,0,29.77,29.77A29.8,29.8,0,0,0,83.62,154.34Z"/><path class="cls-1" d="M282.62,234a49.9,49.9,0,1,1,49.9-49.9A50,50,0,0,1,282.62,234Zm0-79.67a29.77,29.77,0,1,0,29.77,29.77A29.8,29.8,0,0,0,282.62,154.34Z"/></g></g></svg>